<?xml version="1.0" standalone="no"?><svg xmlns="http://www.w3.org/2000/svg" viewBox="0 0 1440 320"><path fill="#0099ff" fill-opacity="1" d="M0,160L24,144C48,128,96,96,144,90.7C192,85,240,107,288,133.3C336,160,384,192,432,197.3C480,203,528,181,576,186.7C624,192,672,224,720,213.3C768,203,816,149,864,154.7C912,160,960,224,1008,229.3C1056,235,1104,181,1152,149.3C1200,117,1248,107,1296,101.3C1344,96,1392,96,1416,96L1440,96L1440,320L1416,320C1392,320,1344,320,1296,320C1248,320,1200,320,1152,320C1104,320,1056,320,1008,320C960,320,912,320,864,320C816,320,768,320,720,320C672,320,624,320,576,320C528,320,480,320,432,320C384,320,336,320,288,320C240,320,192,320,144,320C96,320,48,320,24,320L0,320Z"></path></svg>